<mxfile host="app.diagrams.net" modified="2023-06-12T23:31:57.389Z" agent="Mozilla/5.0 (X11; Linux x86_64) AppleWebKit/537.36 (KHTML, like Gecko) Chrome/113.0.0.0 Safari/537.36" version="21.3.8" etag="849xxfDnufdkDf2bHwUP" type="github">
  <diagram name="ページ1" id="d5oi98Yo-NwfG0Orlo9Q">
    <mxGraphModel>
      <root>
        <mxCell id="0" />
        <mxCell id="1" parent="0" />
      </root>
    </mxGraphModel>
  </diagram>
</mxfile>
